<mxfile host="app.diagrams.net" modified="2024-05-22T01:03:58.606Z" agent="Mozilla/5.0 (Windows NT 10.0; Win64; x64) AppleWebKit/537.36 (KHTML, like Gecko) Chrome/124.0.0.0 Safari/537.36 Avast/124.0.0.0" etag="tys1n4E54N2sNTrs2aFx" version="24.4.4" type="github">
  <diagram id="C5RBs43oDa-KdzZeNtuy" name="Page-1">
    <mxGraphModel dx="1877" dy="522" grid="1" gridSize="10" guides="1" tooltips="1" connect="1" arrows="1" fold="1" page="1" pageScale="1" pageWidth="827" pageHeight="1169" math="0" shadow="0">
      <root>
        <mxCell id="WIyWlLk6GJQsqaUBKTNV-0" />
        <mxCell id="WIyWlLk6GJQsqaUBKTNV-1" parent="WIyWlLk6GJQsqaUBKTNV-0" />
        <mxCell id="N-nAm3pmaitzlD8g2khc-1" value="Server" style="swimlane;fontStyle=0;align=center;verticalAlign=top;childLayout=stackLayout;horizontal=1;startSize=26;horizontalStack=0;resizeParent=1;resizeLast=0;collapsible=1;marginBottom=0;rounded=0;shadow=0;strokeWidth=1;" parent="WIyWlLk6GJQsqaUBKTNV-1" vertex="1">
          <mxGeometry x="-568" y="260" width="310" height="174" as="geometry">
            <mxRectangle x="220" y="120" width="160" height="26" as="alternateBounds" />
          </mxGeometry>
        </mxCell>
        <mxCell id="k-ajEF0ayGevOZXygwuD-2" value="- newestVersionData: string" style="text;whiteSpace=wrap;html=1;" parent="N-nAm3pmaitzlD8g2khc-1" vertex="1">
          <mxGeometry y="26" width="310" height="24" as="geometry" />
        </mxCell>
        <mxCell id="-Mwey3P_AoE73lmkofvR-0" value="- releaseNote: string" style="text;whiteSpace=wrap;html=1;" vertex="1" parent="N-nAm3pmaitzlD8g2khc-1">
          <mxGeometry y="50" width="310" height="24" as="geometry" />
        </mxCell>
        <mxCell id="N-nAm3pmaitzlD8g2khc-2" value="" style="line;html=1;strokeWidth=1;align=left;verticalAlign=middle;spacingTop=-1;spacingLeft=3;spacingRight=3;rotatable=0;labelPosition=right;points=[];portConstraint=eastwest;" parent="N-nAm3pmaitzlD8g2khc-1" vertex="1">
          <mxGeometry y="74" width="310" height="8" as="geometry" />
        </mxCell>
        <mxCell id="k-ajEF0ayGevOZXygwuD-5" value="+ handleRequest(requestForNewUpdate: string)" style="text;align=left;verticalAlign=top;spacingLeft=4;spacingRight=4;overflow=hidden;rotatable=0;points=[[0,0.5],[1,0.5]];portConstraint=eastwest;" parent="N-nAm3pmaitzlD8g2khc-1" vertex="1">
          <mxGeometry y="82" width="310" height="26" as="geometry" />
        </mxCell>
        <mxCell id="k-ajEF0ayGevOZXygwuD-7" value="+ sendReleaseNote(releaseNote: string)" style="text;align=left;verticalAlign=top;spacingLeft=4;spacingRight=4;overflow=hidden;rotatable=0;points=[[0,0.5],[1,0.5]];portConstraint=eastwest;" parent="N-nAm3pmaitzlD8g2khc-1" vertex="1">
          <mxGeometry y="108" width="310" height="26" as="geometry" />
        </mxCell>
        <mxCell id="k-ajEF0ayGevOZXygwuD-8" value="+ sendNewestVersion(destinationIP: string, data: string)" style="text;align=left;verticalAlign=top;spacingLeft=4;spacingRight=4;overflow=hidden;rotatable=0;points=[[0,0.5],[1,0.5]];portConstraint=eastwest;" parent="N-nAm3pmaitzlD8g2khc-1" vertex="1">
          <mxGeometry y="134" width="310" height="26" as="geometry" />
        </mxCell>
        <mxCell id="k-ajEF0ayGevOZXygwuD-44" value="1,1" style="text;html=1;align=center;verticalAlign=middle;resizable=0;points=[];autosize=1;strokeColor=none;fillColor=none;" parent="WIyWlLk6GJQsqaUBKTNV-1" vertex="1">
          <mxGeometry x="-420" y="434" width="40" height="30" as="geometry" />
        </mxCell>
        <mxCell id="UpZqjBtAHoS9Vxa9jhkQ-29" style="edgeStyle=orthogonalEdgeStyle;rounded=0;orthogonalLoop=1;jettySize=auto;html=1;endSize=12;endArrow=blockThin;endFill=1;" parent="WIyWlLk6GJQsqaUBKTNV-1" target="zkfFHV4jXpPFQw0GAbJ--0" edge="1">
          <mxGeometry relative="1" as="geometry">
            <mxPoint x="-430" y="111" as="sourcePoint" />
          </mxGeometry>
        </mxCell>
        <mxCell id="-Mwey3P_AoE73lmkofvR-7" style="edgeStyle=orthogonalEdgeStyle;rounded=0;orthogonalLoop=1;jettySize=auto;html=1;" edge="1" parent="WIyWlLk6GJQsqaUBKTNV-1" source="-Mwey3P_AoE73lmkofvR-1" target="N-nAm3pmaitzlD8g2khc-1">
          <mxGeometry relative="1" as="geometry">
            <Array as="points">
              <mxPoint x="-620" y="510" />
              <mxPoint x="-420" y="510" />
            </Array>
          </mxGeometry>
        </mxCell>
        <mxCell id="-Mwey3P_AoE73lmkofvR-1" value="Windows" style="swimlane;fontStyle=0;align=center;verticalAlign=top;childLayout=stackLayout;horizontal=1;startSize=26;horizontalStack=0;resizeParent=1;resizeLast=0;collapsible=1;marginBottom=0;rounded=0;shadow=0;strokeWidth=1;" vertex="1" parent="WIyWlLk6GJQsqaUBKTNV-1">
          <mxGeometry x="-710" y="590" width="180" height="134" as="geometry">
            <mxRectangle x="220" y="120" width="160" height="26" as="alternateBounds" />
          </mxGeometry>
        </mxCell>
        <mxCell id="-Mwey3P_AoE73lmkofvR-32" value="- currentVersion: string" style="text;whiteSpace=wrap;html=1;" vertex="1" parent="-Mwey3P_AoE73lmkofvR-1">
          <mxGeometry y="26" width="180" height="24" as="geometry" />
        </mxCell>
        <mxCell id="-Mwey3P_AoE73lmkofvR-2" value="- MAC address: string" style="text;whiteSpace=wrap;html=1;" vertex="1" parent="-Mwey3P_AoE73lmkofvR-1">
          <mxGeometry y="50" width="180" height="24" as="geometry" />
        </mxCell>
        <mxCell id="-Mwey3P_AoE73lmkofvR-4" value="" style="line;html=1;strokeWidth=1;align=left;verticalAlign=middle;spacingTop=-1;spacingLeft=3;spacingRight=3;rotatable=0;labelPosition=right;points=[];portConstraint=eastwest;" vertex="1" parent="-Mwey3P_AoE73lmkofvR-1">
          <mxGeometry y="74" width="180" height="8" as="geometry" />
        </mxCell>
        <mxCell id="-Mwey3P_AoE73lmkofvR-5" value="+ checkForNewUpdate()" style="text;align=left;verticalAlign=top;spacingLeft=4;spacingRight=4;overflow=hidden;rotatable=0;points=[[0,0.5],[1,0.5]];portConstraint=eastwest;" vertex="1" parent="-Mwey3P_AoE73lmkofvR-1">
          <mxGeometry y="82" width="180" height="26" as="geometry" />
        </mxCell>
        <mxCell id="-Mwey3P_AoE73lmkofvR-6" value="+ update(newVersion: string)" style="text;align=left;verticalAlign=top;spacingLeft=4;spacingRight=4;overflow=hidden;rotatable=0;points=[[0,0.5],[1,0.5]];portConstraint=eastwest;" vertex="1" parent="-Mwey3P_AoE73lmkofvR-1">
          <mxGeometry y="108" width="180" height="26" as="geometry" />
        </mxCell>
        <mxCell id="-Mwey3P_AoE73lmkofvR-18" style="edgeStyle=orthogonalEdgeStyle;rounded=0;orthogonalLoop=1;jettySize=auto;html=1;" edge="1" parent="WIyWlLk6GJQsqaUBKTNV-1" source="-Mwey3P_AoE73lmkofvR-8" target="N-nAm3pmaitzlD8g2khc-1">
          <mxGeometry relative="1" as="geometry">
            <Array as="points">
              <mxPoint x="-420" y="560" />
              <mxPoint x="-420" y="560" />
            </Array>
          </mxGeometry>
        </mxCell>
        <mxCell id="-Mwey3P_AoE73lmkofvR-8" value="macOS" style="swimlane;fontStyle=0;align=center;verticalAlign=top;childLayout=stackLayout;horizontal=1;startSize=26;horizontalStack=0;resizeParent=1;resizeLast=0;collapsible=1;marginBottom=0;rounded=0;shadow=0;strokeWidth=1;" vertex="1" parent="WIyWlLk6GJQsqaUBKTNV-1">
          <mxGeometry x="-500" y="590" width="160" height="134" as="geometry">
            <mxRectangle x="220" y="120" width="160" height="26" as="alternateBounds" />
          </mxGeometry>
        </mxCell>
        <mxCell id="-Mwey3P_AoE73lmkofvR-9" value="- currentVersion: string" style="text;whiteSpace=wrap;html=1;" vertex="1" parent="-Mwey3P_AoE73lmkofvR-8">
          <mxGeometry y="26" width="160" height="24" as="geometry" />
        </mxCell>
        <mxCell id="-Mwey3P_AoE73lmkofvR-33" value="- MAC address: string" style="text;whiteSpace=wrap;html=1;" vertex="1" parent="-Mwey3P_AoE73lmkofvR-8">
          <mxGeometry y="50" width="160" height="24" as="geometry" />
        </mxCell>
        <mxCell id="-Mwey3P_AoE73lmkofvR-10" value="" style="line;html=1;strokeWidth=1;align=left;verticalAlign=middle;spacingTop=-1;spacingLeft=3;spacingRight=3;rotatable=0;labelPosition=right;points=[];portConstraint=eastwest;" vertex="1" parent="-Mwey3P_AoE73lmkofvR-8">
          <mxGeometry y="74" width="160" height="8" as="geometry" />
        </mxCell>
        <mxCell id="-Mwey3P_AoE73lmkofvR-11" value="+ checkForNewUpdate()" style="text;align=left;verticalAlign=top;spacingLeft=4;spacingRight=4;overflow=hidden;rotatable=0;points=[[0,0.5],[1,0.5]];portConstraint=eastwest;" vertex="1" parent="-Mwey3P_AoE73lmkofvR-8">
          <mxGeometry y="82" width="160" height="26" as="geometry" />
        </mxCell>
        <mxCell id="-Mwey3P_AoE73lmkofvR-12" value="+ update(newVersion: string)" style="text;align=left;verticalAlign=top;spacingLeft=4;spacingRight=4;overflow=hidden;rotatable=0;points=[[0,0.5],[1,0.5]];portConstraint=eastwest;" vertex="1" parent="-Mwey3P_AoE73lmkofvR-8">
          <mxGeometry y="108" width="160" height="26" as="geometry" />
        </mxCell>
        <mxCell id="-Mwey3P_AoE73lmkofvR-19" style="edgeStyle=orthogonalEdgeStyle;rounded=0;orthogonalLoop=1;jettySize=auto;html=1;" edge="1" parent="WIyWlLk6GJQsqaUBKTNV-1" source="-Mwey3P_AoE73lmkofvR-13" target="N-nAm3pmaitzlD8g2khc-1">
          <mxGeometry relative="1" as="geometry">
            <Array as="points">
              <mxPoint x="-230" y="510" />
              <mxPoint x="-420" y="510" />
            </Array>
          </mxGeometry>
        </mxCell>
        <mxCell id="-Mwey3P_AoE73lmkofvR-13" value="Linux" style="swimlane;fontStyle=0;align=center;verticalAlign=top;childLayout=stackLayout;horizontal=1;startSize=26;horizontalStack=0;resizeParent=1;resizeLast=0;collapsible=1;marginBottom=0;rounded=0;shadow=0;strokeWidth=1;" vertex="1" parent="WIyWlLk6GJQsqaUBKTNV-1">
          <mxGeometry x="-310" y="590" width="170" height="134" as="geometry">
            <mxRectangle x="220" y="120" width="160" height="26" as="alternateBounds" />
          </mxGeometry>
        </mxCell>
        <mxCell id="-Mwey3P_AoE73lmkofvR-14" value="- currentVersion: string" style="text;whiteSpace=wrap;html=1;" vertex="1" parent="-Mwey3P_AoE73lmkofvR-13">
          <mxGeometry y="26" width="170" height="24" as="geometry" />
        </mxCell>
        <mxCell id="-Mwey3P_AoE73lmkofvR-34" value="- MAC address: string" style="text;whiteSpace=wrap;html=1;" vertex="1" parent="-Mwey3P_AoE73lmkofvR-13">
          <mxGeometry y="50" width="170" height="24" as="geometry" />
        </mxCell>
        <mxCell id="-Mwey3P_AoE73lmkofvR-15" value="" style="line;html=1;strokeWidth=1;align=left;verticalAlign=middle;spacingTop=-1;spacingLeft=3;spacingRight=3;rotatable=0;labelPosition=right;points=[];portConstraint=eastwest;" vertex="1" parent="-Mwey3P_AoE73lmkofvR-13">
          <mxGeometry y="74" width="170" height="8" as="geometry" />
        </mxCell>
        <mxCell id="-Mwey3P_AoE73lmkofvR-16" value="+ checkForNewUpdate()" style="text;align=left;verticalAlign=top;spacingLeft=4;spacingRight=4;overflow=hidden;rotatable=0;points=[[0,0.5],[1,0.5]];portConstraint=eastwest;" vertex="1" parent="-Mwey3P_AoE73lmkofvR-13">
          <mxGeometry y="82" width="170" height="26" as="geometry" />
        </mxCell>
        <mxCell id="-Mwey3P_AoE73lmkofvR-17" value="+ update(newVersion: string)" style="text;align=left;verticalAlign=top;spacingLeft=4;spacingRight=4;overflow=hidden;rotatable=0;points=[[0,0.5],[1,0.5]];portConstraint=eastwest;" vertex="1" parent="-Mwey3P_AoE73lmkofvR-13">
          <mxGeometry y="108" width="170" height="26" as="geometry" />
        </mxCell>
        <mxCell id="-Mwey3P_AoE73lmkofvR-20" value="query for releaseNote" style="text;html=1;align=center;verticalAlign=middle;resizable=0;points=[];autosize=1;strokeColor=none;fillColor=none;" vertex="1" parent="WIyWlLk6GJQsqaUBKTNV-1">
          <mxGeometry x="-420" y="480" width="140" height="30" as="geometry" />
        </mxCell>
        <mxCell id="-Mwey3P_AoE73lmkofvR-21" value="0..*" style="text;html=1;align=center;verticalAlign=middle;resizable=0;points=[];autosize=1;strokeColor=none;fillColor=none;" vertex="1" parent="WIyWlLk6GJQsqaUBKTNV-1">
          <mxGeometry x="-420" y="560" width="40" height="30" as="geometry" />
        </mxCell>
        <mxCell id="-Mwey3P_AoE73lmkofvR-22" value="0..*" style="text;html=1;align=center;verticalAlign=middle;resizable=0;points=[];autosize=1;strokeColor=none;fillColor=none;" vertex="1" parent="WIyWlLk6GJQsqaUBKTNV-1">
          <mxGeometry x="-620" y="560" width="40" height="30" as="geometry" />
        </mxCell>
        <mxCell id="-Mwey3P_AoE73lmkofvR-24" value="0..*" style="text;html=1;align=center;verticalAlign=middle;resizable=0;points=[];autosize=1;strokeColor=none;fillColor=none;" vertex="1" parent="WIyWlLk6GJQsqaUBKTNV-1">
          <mxGeometry x="-230" y="560" width="40" height="30" as="geometry" />
        </mxCell>
      </root>
    </mxGraphModel>
  </diagram>
</mxfile>
